# xmcd
#
# Track frame offsets: 
#        150
#        22735
#        40782
#        62302
#        82410
#        102330
#        121155
#        139622
#        163412
#        181020
#        196195
#        212822
#
# Disc length: 3171 seconds
#
# Revision: 1
# Processed by: cddbd v1.5.2PL0 Copyright (c) Steve Scherf et al.
# Submitted via: ExactAudioCopy v1.0b3
#
DISCID=9a0c610c
DTITLE=Geroge Benson - The love songs
DYEAR=1985
DGENRE=Country
TTITLE0=Give Me the Night
TTITLE1=Lady Love Me (One More Time)
TTITLE2=Love X Love
TTITLE3=New Day
TTITLE4=Feel Like Making Love
TTITLE5=20-20
TTITLE6=Never Give Up On a Good Thing
TTITLE7=Inside Love (So Personal)
TTITLE8=No One Emotion
TTITLE9=In Your Eyes
TTITLE10=Turn Your Love Around
TTITLE11=The Greatest Love of All
EXTD=
EXTT0=
EXTT1=
EXTT2=
EXTT3=
EXTT4=
EXTT5=
EXTT6=
EXTT7=
EXTT8=
EXTT9=
EXTT10=
EXTT11=
PLAYORDER=
